<?xml version="1.0" encoding="UTF-8"?>
<svg xmlns="http://www.w3.org/2000/svg" xmlns:xlink="http://www.w3.org/1999/xlink" viewBox="0 0 30 30" width="30px" height="30px">
<g id="surface20600804">
<path style=" stroke:none;fill-rule:nonzero;fill:rgb(46.27451%,46.27451%,46.27451%);fill-opacity:1;" d="M 6 4 C 4.894531 4 4 4.894531 4 6 L 4 24 C 4 25.105469 4.894531 26 6 26 L 24 26 C 25.105469 26 26 25.105469 26 24 L 26 6 C 26 4.894531 25.105469 4 24 4 Z M 6 6 L 24 6 L 24 12 L 20.738281 12 C 19.476562 10.1875 17.378906 9 15 9 C 12.621094 9 10.523438 10.1875 9.257812 12 L 6 12 Z M 21 8 L 21 10 L 23 10 L 23 8 Z M 15 11 C 17.757812 11 20 13.242188 20 16 C 20 18.757812 17.757812 21 15 21 C 12.242188 21 10 18.757812 10 16 C 10 13.242188 12.242188 11 15 11 Z M 15 13 C 14.535156 13 14.105469 13.113281 13.714844 13.300781 C 13.890625 13.480469 14 13.726562 14 14 C 14 14.550781 13.550781 15 13 15 C 12.726562 15 12.480469 14.890625 12.300781 14.714844 C 12.113281 15.105469 12 15.535156 12 16 C 12 17.65625 13.34375 19 15 19 C 16.65625 19 18 17.65625 18 16 C 18 14.34375 16.65625 13 15 13 Z M 15 13 "/>
</g>
</svg>
