<?xml version="1.0" encoding="UTF-8"?>
<svg xmlns="http://www.w3.org/2000/svg" xmlns:xlink="http://www.w3.org/1999/xlink" viewBox="0 0 50 50" width="50px" height="50px">
<g id="surface20617244">
<path style=" stroke:none;fill-rule:nonzero;fill:rgb(46.27451%,46.27451%,46.27451%);fill-opacity:1;" d="M 46.773438 35.078125 C 40.96875 34.121094 38.316406 28.109375 38.230469 27.914062 C 38.21875 27.878906 38.191406 27.816406 38.175781 27.78125 C 38 27.429688 37.824219 26.933594 37.972656 26.582031 C 38.226562 25.980469 39.433594 25.597656 40.15625 25.367188 C 40.410156 25.285156 40.652344 25.210938 40.839844 25.136719 C 42.59375 24.441406 43.46875 23.535156 43.449219 22.433594 C 43.433594 21.546875 42.753906 20.734375 41.753906 20.382812 C 41.40625 20.234375 41.007812 20.160156 40.605469 20.160156 C 40.332031 20.160156 39.917969 20.199219 39.519531 20.382812 C 38.851562 20.695312 38.265625 20.863281 37.847656 20.882812 C 37.757812 20.878906 37.679688 20.871094 37.613281 20.859375 L 37.65625 20.171875 C 37.851562 17.0625 38.097656 13.1875 37.046875 10.832031 C 33.945312 3.890625 27.375 3.351562 25.433594 3.351562 L 24.550781 3.359375 C 22.613281 3.359375 16.054688 3.898438 12.960938 10.835938 C 11.910156 13.191406 12.152344 17.0625 12.351562 20.175781 L 12.359375 20.292969 C 12.371094 20.484375 12.382812 20.675781 12.394531 20.859375 C 11.960938 20.9375 11.113281 20.792969 10.234375 20.382812 C 9.039062 19.824219 6.886719 20.5625 6.589844 22.125 C 6.457031 22.816406 6.617188 24.128906 9.164062 25.132812 C 9.355469 25.210938 9.59375 25.285156 9.851562 25.367188 C 10.570312 25.597656 11.777344 25.976562 12.03125 26.582031 C 12.179688 26.933594 12.003906 27.429688 11.796875 27.855469 C 11.6875 28.109375 9.050781 34.121094 3.234375 35.078125 C 2.492188 35.199219 1.964844 35.855469 2.003906 36.613281 C 2.015625 36.8125 2.066406 37.011719 2.148438 37.207031 C 2.675781 38.445312 4.59375 39.296875 8.171875 39.878906 C 8.234375 40.089844 8.304688 40.402344 8.34375 40.574219 C 8.417969 40.929688 8.5 41.289062 8.609375 41.664062 C 8.714844 42.019531 9.078125 42.84375 10.210938 42.84375 C 10.554688 42.84375 10.929688 42.769531 11.332031 42.691406 C 11.925781 42.574219 12.667969 42.429688 13.621094 42.429688 C 14.152344 42.429688 14.699219 42.476562 15.25 42.566406 C 16.265625 42.734375 17.183594 43.386719 18.25 44.136719 C 19.914062 45.316406 21.800781 46.648438 24.726562 46.648438 C 24.804688 46.648438 24.882812 46.644531 24.957031 46.640625 C 25.0625 46.644531 25.171875 46.648438 25.28125 46.648438 C 28.207031 46.648438 30.09375 45.3125 31.761719 44.136719 C 32.777344 43.414062 33.738281 42.738281 34.757812 42.566406 C 35.308594 42.476562 35.855469 42.429688 36.386719 42.429688 C 37.304688 42.429688 38.03125 42.546875 38.679688 42.675781 C 39.140625 42.765625 39.507812 42.808594 39.847656 42.808594 C 40.605469 42.808594 41.1875 42.375 41.398438 41.648438 C 41.507812 41.28125 41.585938 40.925781 41.664062 40.566406 C 41.695312 40.433594 41.769531 40.097656 41.835938 39.875 C 45.414062 39.292969 47.332031 38.441406 47.855469 37.214844 C 47.941406 37.019531 47.988281 36.816406 48.003906 36.605469 C 48.042969 35.859375 47.515625 35.203125 46.773438 35.078125 Z M 46.773438 35.078125 "/>
</g>
</svg>
