<?xml version="1.0" encoding="UTF-8"?>
<svg xmlns="http://www.w3.org/2000/svg" xmlns:xlink="http://www.w3.org/1999/xlink" viewBox="0 0 16 16" width="16px" height="16px">
<g id="surface20610007">
<path style=" stroke:none;fill-rule:nonzero;fill:rgb(46.27451%,46.27451%,46.27451%);fill-opacity:1;" d="M 8.554688 15.5 C 7.191406 15.5 6.234375 14.875 5.710938 13.636719 C 5.445312 13.011719 5.300781 12.226562 5.300781 11.425781 L 5.300781 6.699219 L 3.398438 6.699219 C 3.34375 6.699219 3.300781 6.65625 3.300781 6.601562 L 3.300781 4.925781 C 3.300781 4.886719 3.320312 4.851562 3.355469 4.835938 C 5.367188 3.894531 6.425781 2.46875 6.496094 0.601562 C 6.5 0.542969 6.539062 0.5 6.59375 0.5 C 7.039062 0.5 8.148438 0.5 8.601562 0.5 C 8.628906 0.5 8.652344 0.511719 8.671875 0.527344 C 8.691406 0.546875 8.699219 0.574219 8.699219 0.601562 L 8.699219 4.101562 L 11.800781 4.101562 C 11.855469 4.101562 11.898438 4.144531 11.898438 4.199219 L 11.898438 6.601562 C 11.898438 6.65625 11.855469 6.699219 11.800781 6.699219 L 8.699219 6.699219 L 8.699219 11.351562 C 8.699219 11.523438 8.726562 12.101562 9.128906 12.503906 C 9.390625 12.765625 9.753906 12.898438 10.207031 12.898438 C 11.078125 12.898438 12.058594 12.554688 12.5625 12.347656 C 12.574219 12.34375 12.589844 12.339844 12.601562 12.339844 C 12.648438 12.339844 12.699219 12.378906 12.699219 12.441406 L 12.699219 14.378906 C 12.699219 14.414062 12.683594 14.441406 12.65625 14.460938 C 12.292969 14.703125 10.917969 15.5 8.554688 15.5 Z M 8.554688 15.5 "/>
<path style=" stroke:none;fill-rule:nonzero;fill:rgb(46.27451%,46.27451%,46.27451%);fill-opacity:1;" d="M 8.601562 0.601562 L 8.601562 4.199219 L 11.800781 4.199219 L 11.800781 6.601562 L 8.601562 6.601562 L 8.601562 11.355469 C 8.597656 11.53125 8.628906 12.144531 9.058594 12.574219 C 9.339844 12.855469 9.722656 13 10.207031 13 C 11.09375 13 12.089844 12.648438 12.601562 12.441406 L 12.601562 14.378906 C 12.242188 14.617188 10.890625 15.398438 8.554688 15.398438 C 7.238281 15.398438 6.3125 14.792969 5.804688 13.597656 C 5.542969 12.984375 5.398438 12.214844 5.398438 11.425781 L 5.398438 6.601562 L 3.398438 6.601562 L 3.398438 4.929688 C 5.445312 3.96875 6.523438 2.511719 6.59375 0.601562 C 7.039062 0.601562 8.144531 0.601562 8.601562 0.601562 M 8.601562 0.398438 C 8.148438 0.398438 7.039062 0.402344 6.59375 0.402344 C 6.484375 0.402344 6.402344 0.488281 6.394531 0.597656 C 6.289062 3.335938 3.980469 4.433594 3.3125 4.746094 C 3.242188 4.78125 3.199219 4.847656 3.199219 4.925781 L 3.199219 6.601562 C 3.199219 6.710938 3.289062 6.800781 3.398438 6.800781 L 5.199219 6.800781 L 5.199219 11.425781 C 5.199219 11.851562 5.195312 15.601562 8.554688 15.601562 C 10.960938 15.601562 12.367188 14.777344 12.714844 14.542969 C 12.769531 14.507812 12.800781 14.445312 12.800781 14.378906 L 12.800781 12.441406 C 12.800781 12.324219 12.707031 12.238281 12.601562 12.238281 C 12.574219 12.238281 12.550781 12.246094 12.523438 12.253906 C 12.058594 12.445312 11.074219 12.800781 10.207031 12.800781 C 8.769531 12.800781 8.800781 11.410156 8.800781 11.351562 L 8.800781 6.800781 L 11.800781 6.800781 C 11.910156 6.800781 12 6.710938 12 6.601562 L 12 4.199219 C 12 4.089844 11.910156 4 11.800781 4 L 8.800781 4 L 8.800781 0.601562 C 8.800781 0.488281 8.710938 0.398438 8.601562 0.398438 Z M 8.601562 0.398438 "/>
</g>
</svg>
